<svg width="102" height="102" viewBox="0 0 102 102" fill="none" xmlns="http://www.w3.org/2000/svg">
<path d="M51.0001 2.03955C23.9599 2.03955 2.0401 23.9594 2.0401 50.9996C2.0401 78.0398 23.9599 99.9596 51.0001 99.9596C78.0403 99.9596 99.9601 78.0398 99.9601 50.9996C99.9601 23.9594 78.0403 2.03955 51.0001 2.03955ZM69.8293 57.2777C69.8293 57.2777 74.1592 61.5515 75.2251 63.5354C75.2557 63.5762 75.271 63.6169 75.2812 63.6373C75.7147 64.3666 75.8167 64.9327 75.6025 65.356C75.2455 66.0598 74.0215 66.4067 73.6033 66.4373H65.9533C65.4229 66.4373 64.3111 66.2996 62.9647 65.3714C61.9294 64.6472 60.9094 63.4588 59.9149 62.3011C58.4308 60.5773 57.1456 59.0882 55.8502 59.0882C55.6857 59.0879 55.5221 59.1137 55.3657 59.1647C54.3865 59.4809 53.1319 60.8783 53.1319 64.6013C53.1319 65.7641 52.2139 66.4322 51.5662 66.4322H48.0625C46.8691 66.4322 40.6522 66.014 35.1442 60.2051C28.402 53.0906 22.333 38.8207 22.282 38.6881C21.8995 37.765 22.69 37.2704 23.5519 37.2704H31.2784C32.3086 37.2704 32.6452 37.8976 32.8798 38.4535C33.1552 39.1012 34.165 41.6768 35.8225 44.5736C38.5102 49.2962 40.1575 51.2138 41.4784 51.2138C41.7261 51.2108 41.9693 51.1478 42.1873 51.0301C43.9111 50.0713 43.5898 43.9258 43.5133 42.6508C43.5133 42.4111 43.5082 39.9019 42.6259 38.6983C41.9935 37.8262 40.9174 37.4947 40.2646 37.3723C40.5288 37.0078 40.8769 36.7121 41.2795 36.5104C42.4627 35.9188 44.5945 35.8321 46.711 35.8321H47.8891C50.1841 35.8627 50.7757 36.0107 51.607 36.2198C53.29 36.6227 53.3257 37.709 53.1778 41.4269C53.1319 42.4826 53.086 43.676 53.086 45.0836C53.086 45.3896 53.0707 45.7159 53.0707 46.0627C53.0197 47.9548 52.9585 50.102 54.2947 50.9843C54.469 51.0935 54.6704 51.1518 54.8761 51.1526C55.3402 51.1526 56.7376 51.1526 60.5218 44.6603C61.6889 42.5706 62.703 40.3991 63.5563 38.1628C63.6328 38.0302 63.8572 37.6223 64.1224 37.4642C64.3181 37.3644 64.5351 37.3136 64.7548 37.3162H73.8379C74.8273 37.3162 75.5056 37.4641 75.6331 37.8466C75.8575 38.4535 75.5923 40.3049 71.446 45.92L69.5947 48.3629C65.836 53.2895 65.836 53.5394 69.8293 57.2777V57.2777Z" fill="url(#paint0_linear_1_282)"/>
<defs>
<linearGradient id="paint0_linear_1_282" x1="51.0001" y1="2.03955" x2="51.0001" y2="99.9596" gradientUnits="userSpaceOnUse">
<stop stop-color="#2B6E36"/>
<stop offset="0.640625" stop-color="#64E9A9"/>
</linearGradient>
</defs>
</svg>
