<svg width="20" height="20" viewBox="0 0 20 20" fill="none" xmlns="http://www.w3.org/2000/svg">
<path d="M16.9 2.21661C16.0666 2.03327 15.45 1.04161 14.6416 0.866605C13.8333 0.691605 12.8333 1.32494 12.0166 1.14161C11.587 0.990467 11.129 0.937467 10.6762 0.986496C10.2234 1.03553 9.78731 1.18534 9.39998 1.42494L9.34165 13.3333L9.16665 14.1666C8.86665 15.5166 9.72498 16.8499 11.075 17.1499C12.4166 17.4416 13.75 16.5916 14.05 15.2416L14.225 14.4083L19.1666 3.56661C18.9153 3.185 18.5808 2.86529 18.1882 2.63148C17.7957 2.39767 17.3552 2.25583 16.9 2.21661V2.21661ZM12.425 14.8833C12.325 15.3416 11.875 15.6333 11.4166 15.5416C10.95 15.4416 10.6583 14.9999 10.7583 14.5249L11.475 11.2499C11.5181 11.0375 11.6424 10.8503 11.8213 10.728C12.0002 10.6056 12.2198 10.5578 12.4333 10.5947C12.6469 10.6316 12.8378 10.7502 12.9653 10.9254C13.0929 11.1007 13.1472 11.3187 13.1166 11.5333C13.1166 11.5666 13.1083 11.5916 13.1 11.6249L12.425 14.8833ZM8.09998 16.9499C7.77498 16.4416 7.56665 15.8749 7.49998 15.2833L6.86665 12.4999C6.74998 12.0583 7.00831 11.5999 7.49998 11.4666C7.56081 11.4583 7.62249 11.4583 7.68331 11.4666V2.02494C6.92498 2.02494 6.01665 1.54994 5.31665 1.71661C4.61665 1.88327 3.90831 2.86661 3.09998 3.04994C2.17498 3.13327 1.34165 3.62494 0.833313 4.39994L5.77498 15.2333L5.94998 16.0666C6.09221 16.7137 6.48528 17.278 7.04298 17.6358C7.60068 17.9935 8.27748 18.1155 8.92498 17.9749H9.00831C8.64998 17.6833 8.33331 17.3416 8.09998 16.9499Z" fill="white"/>
</svg>
