<svg width="126" height="34" viewBox="0 0 126 34" fill="none" xmlns="http://www.w3.org/2000/svg">
<g clip-path="url(#clip0_1_55)">
<path d="M16.6643 4.25H8.83575C1.6915 4.25 0 5.9415 0 13.0857V20.9143C0 28.0585 1.6915 29.75 8.83575 29.75H16.6643C23.8085 29.75 25.5 28.0585 25.5 20.9143V13.0857C25.5 5.9415 23.7904 4.25 16.6643 4.25ZM20.587 22.4432H18.734C18.0327 22.4432 17.816 21.8854 16.5559 20.6082C15.4583 19.5457 14.9728 19.4023 14.7029 19.4023C14.3246 19.4023 14.2163 19.5107 14.2163 20.0324V21.7058C14.2163 22.1563 14.0728 22.4262 12.8849 22.4262C10.9236 22.4262 8.74544 21.2383 7.2165 19.0241C4.913 15.7856 4.28188 13.3556 4.28188 12.852C4.28188 12.5821 4.39025 12.3303 4.91194 12.3303H6.76494C7.23244 12.3303 7.41306 12.546 7.59369 13.0496C8.51062 15.6952 10.0406 18.0168 10.6707 18.0168C10.9044 18.0168 11.0128 17.9084 11.0128 17.3156V14.5786C10.9406 13.3184 10.2744 13.2111 10.2744 12.7617C10.2744 12.5449 10.455 12.3293 10.7419 12.3293H13.6574C14.0537 12.3293 14.1971 12.5449 14.1971 13.0124V16.7025C14.1971 17.0978 14.3778 17.2422 14.4851 17.2422C14.7188 17.2422 14.9175 17.0977 15.3489 16.6664C16.6813 15.1725 17.6343 12.869 17.6343 12.869C17.7608 12.5991 17.9764 12.3473 18.445 12.3473H20.298C20.8558 12.3473 20.9822 12.6342 20.8558 13.0305C20.6221 14.1111 18.3547 17.3134 18.3547 17.3134C18.1571 17.6375 18.0848 17.7809 18.3547 18.1422C18.5523 18.4121 19.2004 18.9699 19.6329 19.4735C20.4244 20.3734 21.0354 21.1289 21.1979 21.6516C21.3786 22.1723 21.1076 22.4421 20.5859 22.4421L20.587 22.4432Z" fill="white"/>
</g>
<path d="M62.7083 12.5741C60.1696 12.5741 58.0979 14.5629 58.0979 17.0001C58.0979 19.4372 60.1696 21.426 62.7083 21.426C65.247 21.426 67.3187 19.4372 67.3187 17.0001C67.3187 14.5629 65.247 12.5741 62.7083 12.5741ZM76.536 17.0001C76.536 15.1672 76.5533 13.351 76.4461 11.5215C76.3389 9.39654 75.8339 7.51061 74.2153 5.9567C72.5932 4.39947 70.6321 3.91803 68.4185 3.8151C66.5094 3.71217 64.6175 3.72877 62.7118 3.72877C60.8026 3.72877 58.9107 3.71217 57.005 3.8151C54.7914 3.91803 52.8269 4.40279 51.2083 5.9567C49.5862 7.51393 49.0846 9.39654 48.9774 11.5215C48.8702 13.3544 48.8875 15.1706 48.8875 17.0001C48.8875 18.8296 48.8702 20.6491 48.9774 22.4786C49.0846 24.6036 49.5896 26.4895 51.2083 28.0434C52.8304 29.6006 54.7914 30.0821 57.005 30.185C58.9142 30.2879 60.806 30.2713 62.7118 30.2713C64.6209 30.2713 66.5128 30.2879 68.4185 30.185C70.6321 30.0821 72.5966 29.5973 74.2153 28.0434C75.8374 26.4862 76.3389 24.6036 76.4461 22.4786C76.5568 20.6491 76.536 18.8329 76.536 17.0001V17.0001ZM62.7083 23.81C58.7827 23.81 55.6146 20.7686 55.6146 17.0001C55.6146 13.2315 58.7827 10.1901 62.7083 10.1901C66.6339 10.1901 69.802 13.2315 69.802 17.0001C69.802 20.7686 66.6339 23.81 62.7083 23.81ZM70.0925 11.5016C69.176 11.5016 68.4358 10.7911 68.4358 9.91119C68.4358 9.03131 69.176 8.32076 70.0925 8.32076C71.0091 8.32076 71.7492 9.03131 71.7492 9.91119C71.7495 10.1201 71.7068 10.3271 71.6237 10.5201C71.5405 10.7132 71.4185 10.8886 71.2646 11.0364C71.1107 11.1841 70.928 11.3013 70.7269 11.3811C70.5257 11.4609 70.3102 11.5019 70.0925 11.5016V11.5016Z" fill="white"/>
<g clip-path="url(#clip1_1_55)">
<path d="M120.719 4.25C122.036 4.25 123.162 4.71761 124.097 5.65283C125.032 6.58805 125.5 7.71419 125.5 9.03125V24.9688C125.5 26.2858 125.032 27.4119 124.097 28.3472C123.162 29.2824 122.036 29.75 120.719 29.75H117.598V19.8721H120.901L121.399 16.0205H117.598V13.5635C117.598 12.9437 117.728 12.4788 117.988 12.1689C118.248 11.859 118.754 11.7041 119.507 11.7041L121.532 11.6875V8.25098C120.835 8.15137 119.85 8.10156 118.577 8.10156C117.072 8.10156 115.868 8.54427 114.966 9.42969C114.064 10.3151 113.613 11.5658 113.613 13.1816V16.0205H110.293V19.8721H113.613V29.75H104.781C103.464 29.75 102.338 29.2824 101.403 28.3472C100.468 27.4119 100 26.2858 100 24.9688V9.03125C100 7.71419 100.468 6.58805 101.403 5.65283C102.338 4.71761 103.464 4.25 104.781 4.25H120.719Z" fill="white"/>
</g>
<defs>
<clipPath id="clip0_1_55">
<rect width="25.5" height="25.5" fill="white" transform="translate(0 4.25)"/>
</clipPath>
<clipPath id="clip1_1_55">
<rect width="25.5" height="25.5" fill="white" transform="translate(100 4.25)"/>
</clipPath>
</defs>
</svg>
